<svg width="349" height="57" viewBox="0 0 349 57" fill="none" xmlns="http://www.w3.org/2000/svg">
<path d="M0 28.5001C0 15.6969 0 9.29526 3.67892 5.08743C4.11644 4.587 4.587 4.11644 5.08743 3.67892C9.29526 0 15.6969 0 28.5001 0H319.953C332.757 0 339.158 0 343.366 3.67892C343.867 4.11644 344.337 4.587 344.775 5.08743C348.454 9.29526 348.454 15.6969 348.454 28.5001C348.454 41.3033 348.454 47.7049 344.775 51.9127C344.337 52.4131 343.867 52.8837 343.366 53.3212C339.158 57.0001 332.757 57.0001 319.953 57.0001H28.5001C15.6969 57.0001 9.29526 57.0001 5.08743 53.3212C4.587 52.8837 4.11644 52.4131 3.67892 51.9127C0 47.7049 0 41.3033 0 28.5001Z" fill="#EDEDED"/>
</svg>
